<svg xmlns="http://www.w3.org/2000/svg" xmlns:xlink="http://www.w3.org/1999/xlink" width="120" height="120" version="1.1" viewBox="0 0 120 120"><title>Artboard</title><g id="Artboard" fill="none" fill-rule="evenodd" stroke="none" stroke-width="1"><g id="flow-docs" fill-rule="nonzero"><ellipse id="Oval" cx="59.952" cy="60" fill="#00EF8B" rx="59.952" ry="60"/><rect id="Rectangle" width="15.987" height="16" x="69.659" y="51.429" fill="#FFF"/><path id="Path" fill="#FFF" d="M52.6379479,73.7018824 C52.642823,76.2901643 51.0880303,78.6260755 48.6996061,79.6188232 C46.311182,80.6115709 43.5603222,80.0653028 41.7315868,78.2351079 C39.9028514,76.4049129 39.3570189,73.6518578 40.3489749,71.2615275 C41.3409309,68.8711972 43.6749793,67.3151636 46.2611972,67.3200425 L52.6379479,67.3200425 L52.6379479,50.2857143 L46.2611972,50.2857143 C36.7907274,50.2808381 28.2502964,55.9871538 24.623852,64.7427771 C20.9974076,73.4984005 22.9994628,83.5782242 29.6960971,90.2802029 C36.3927314,96.9821817 46.4645169,98.9858347 55.2131581,95.3564961 C63.9617993,91.7271575 69.6635645,83.1799104 69.6586922,73.7018824 L69.6586922,67.3200425 L52.6379479,67.3200425 L52.6379479,73.7018824 Z"/><path id="Path" fill="#FFF" d="M75.2548413,41.900803 L94.7814992,41.900803 L94.7814992,25.1428571 L75.2548413,25.1428571 C62.0789247,25.1559499 51.4011153,35.4692704 51.3875598,48.1954248 L51.3875598,50.2857143 L68.7500541,50.2857143 L68.7500541,48.1954248 C68.7567927,44.7263325 71.663165,41.9138632 75.2548413,41.900803 Z"/><polygon id="Path" fill="#16FF99" points="53.671 67.429 69.659 67.429 69.659 67.429 69.659 51.429 69.659 51.429 53.671 51.429"/></g></g></svg>